<svg xmlns="http://www.w3.org/2000/svg" width="1800" height="900" viewBox="0 0 1800 900" fill="none">
  <defs>
    <filter id="soak" x="-10%" y="-10%" width="120%" height="120%" color-interpolation-filters="sRGB">
      <feTurbulence type="fractalNoise" baseFrequency="0.018 0.075" numOctaves="4" seed="19" result="noise"/>
      <feDisplacementMap in="SourceGraphic" in2="noise" scale="16" xChannelSelector="R" yChannelSelector="G"/>
      <feGaussianBlur stdDeviation="0.45"/>
    </filter>
    <filter id="mist" x="-20%" y="-20%" width="140%" height="140%">
      <feGaussianBlur stdDeviation="9"/>
    </filter>
    <radialGradient id="fresh" cx="50%" cy="50%" r="50%">
      <stop offset="0" stop-color="#d92c10"/>
      <stop offset="0.42" stop-color="#8e0903"/>
      <stop offset="1" stop-color="#260000"/>
    </radialGradient>
    <linearGradient id="drip" x1="0" y1="0" x2="0" y2="1">
      <stop offset="0" stop-color="#a20d04"/>
      <stop offset="0.58" stop-color="#5d0000"/>
      <stop offset="1" stop-color="#120000" stop-opacity="0.18"/>
    </linearGradient>
  </defs>

  <g opacity="0.72" filter="url(#mist)">
    <ellipse cx="665" cy="806" rx="275" ry="74" fill="#790500"/>
    <ellipse cx="1135" cy="806" rx="275" ry="74" fill="#790500"/>
    <ellipse cx="900" cy="868" rx="510" ry="44" fill="#5d0000"/>
  </g>

  <g filter="url(#soak)">
    <path fill="#560000" opacity="0.9" d="M0 856c82-28 178-20 262-42 90-24 164-70 267-56 59 8 96 41 154 52 75 15 139-22 217-20 81 2 143 42 222 28 79-15 133-68 219-66 84 1 143 58 226 72 88 14 156-17 233 9v67H0z"/>
    <path fill="#8f0702" opacity="0.84" d="M438 748c46-36 124-28 160 10 38 40 102 28 138 68 24 27 18 54-11 66-70 29-146 4-213 3-89-1-160 20-236-18-34-18-34-48 1-65 55-27 111-25 161-64z"/>
    <path fill="#8f0702" opacity="0.84" d="M1362 748c-46-36-124-28-160 10-38 40-102 28-138 68-24 27-18 54 11 66 70 29 146 4 213 3 89-1 160 20 236-18 34-18 34-48-1-65-55-27-111-25-161-64z"/>
    <path fill="#390000" opacity="0.9" d="M612 508c54-12 93 11 112 46 24 43 4 101-34 128-44 31-139 24-174-22-24-31-20-85 7-114 19-20 49-29 89-38z"/>
    <path fill="#390000" opacity="0.9" d="M1188 508c-54-12-93 11-112 46-24 43-4 101 34 128 44 31 139 24 174-22 24-31 20-85-7-114-19-20-49-29-89-38z"/>
    <path fill="#7d0601" opacity="0.78" d="M590 586c31-18 82-12 107 13 20 20 20 50-8 65-42 23-114 6-138-26-18-24 1-40 39-52z"/>
    <path fill="#7d0601" opacity="0.78" d="M1210 586c-31-18-82-12-107 13-20 20-20 50 8 65 42 23 114 6 138-26 18-24-1-40-39-52z"/>
  </g>

  <g opacity="0.9">
    <path stroke="url(#drip)" stroke-width="9" stroke-linecap="round" d="M564 603c-9 80-6 134-15 205"/>
    <path stroke="url(#drip)" stroke-width="6" stroke-linecap="round" d="M632 548c8 83-3 139 4 202"/>
    <path stroke="url(#drip)" stroke-width="5" stroke-linecap="round" d="M704 622c-2 46 4 88-9 135"/>
    <path stroke="url(#drip)" stroke-width="9" stroke-linecap="round" d="M1236 603c9 80 6 134 15 205"/>
    <path stroke="url(#drip)" stroke-width="6" stroke-linecap="round" d="M1168 548c-8 83 3 139-4 202"/>
    <path stroke="url(#drip)" stroke-width="5" stroke-linecap="round" d="M1096 622c2 46-4 88 9 135"/>
    <path stroke="url(#drip)" stroke-width="4" stroke-linecap="round" d="M430 737c-9 38-12 75-24 108"/>
    <path stroke="url(#drip)" stroke-width="4" stroke-linecap="round" d="M1370 737c9 38 12 75 24 108"/>
  </g>

  <g fill="url(#fresh)" opacity="0.9">
    <ellipse cx="548" cy="580" rx="34" ry="23" transform="rotate(-16 548 580)"/>
    <ellipse cx="671" cy="531" rx="25" ry="18" transform="rotate(22 671 531)"/>
    <ellipse cx="726" cy="650" rx="17" ry="14"/>
    <ellipse cx="1252" cy="580" rx="34" ry="23" transform="rotate(16 1252 580)"/>
    <ellipse cx="1129" cy="531" rx="25" ry="18" transform="rotate(-22 1129 531)"/>
    <ellipse cx="1074" cy="650" rx="17" ry="14"/>
    <ellipse cx="462" cy="760" rx="28" ry="17" transform="rotate(13 462 760)"/>
    <ellipse cx="1338" cy="760" rx="28" ry="17" transform="rotate(-13 1338 760)"/>
  </g>

  <g fill="#b71908" opacity="0.58">
    <circle cx="498" cy="524" r="7"/>
    <circle cx="611" cy="475" r="5"/>
    <circle cx="739" cy="560" r="8"/>
    <circle cx="781" cy="722" r="5"/>
    <circle cx="1302" cy="524" r="7"/>
    <circle cx="1189" cy="475" r="5"/>
    <circle cx="1061" cy="560" r="8"/>
    <circle cx="1019" cy="722" r="5"/>
    <circle cx="312" cy="818" r="9"/>
    <circle cx="1488" cy="818" r="9"/>
  </g>
</svg>
